<svg xmlns="http://www.w3.org/2000/svg" data-name="Layer 1" viewBox="0 0 100 125" x="0px" y="0px"><title>67</title><g data-name="Group"><path data-name="Compound Path" d="M87.4,14.5h0v-.3h0v-.3h-.1l-.3-.4-.4-.3H85L40.9,21.8A31.4,31.4,0,0,0,16.1,55.8h0a31.4,31.4,0,0,0,7.7,17.6L13.1,84A2,2,0,1,0,16,86.9L26.6,76.2a31.4,31.4,0,0,0,17.6,7.7h0l3.2.2a31.4,31.4,0,0,0,30.7-25L87.4,15h0A2,2,0,0,0,87.4,14.5Zm-5.3,6.2-4.6,22H60.1ZM57.3,39.9V22.5l22-4.6ZM41.7,25.8l11.6-2.4V43.9L37,60.2v-33A27.7,27.7,0,0,1,41.7,25.8ZM20,55.4h0A27.4,27.4,0,0,1,33,29.2v35l-6.4,6.4A27.4,27.4,0,0,1,20,55.4ZM44.6,80h0a27.4,27.4,0,0,1-15.2-6.6L35.8,67h35A27.4,27.4,0,0,1,44.6,80ZM72.8,63h-33L56.1,46.7H76.7L74.2,58.3A27.7,27.7,0,0,1,72.8,63Z"/></g><text x="0" y="115" fill="#000000" font-size="5px" font-weight="bold" font-family="'Helvetica Neue', Helvetica, Arial-Unicode, Arial, Sans-serif">Created by Lakshisha</text><text x="0" y="120" fill="#000000" font-size="5px" font-weight="bold" font-family="'Helvetica Neue', Helvetica, Arial-Unicode, Arial, Sans-serif">from the Noun Project</text></svg>