<svg xmlns="http://www.w3.org/2000/svg" xmlns:xlink="http://www.w3.org/1999/xlink" version="1.2" baseProfile="tiny" x="0px" y="0px" viewBox="0 0 100 125" xml:space="preserve"><path d="M96.968605,5.195992c-0.1079102-1.1484375-1.0170898-2.0566406-2.1650391-2.1650391  C92.8270035,2.8463826,46.1712418-1.2766641,25.1360855,19.757515c-19.2244873,19.2253418-9.9316406,51.7927856-7.4780273,59.18927  L3.2889175,93.3161087c-0.9370117,0.9375-0.9370117,2.4570313,0,3.3945313c0.46875,0.46875,1.0830078,0.703125,1.6972656,0.703125  s1.2285156-0.234375,1.6972656-0.703125l14.3691406-14.3693237c3.8482666,1.2768555,14.508606,4.40448,26.5610352,4.40448  c11.1108398,0,23.40625-2.6601563,32.628418-11.8818359C101.2767105,53.828804,97.1541519,7.1715779,96.968605,5.195992z   M76.8475113,71.469429c-15.5330811,15.5321655-42.2442017,9.7979126-51.9405518,7.0174561l22.0631104-22.0633545  c0.9370117-0.9375,0.9370117-2.4570313,0-3.3945313c-0.9375-0.9375-2.4570313-0.9375-3.3945313,0L21.5126114,75.0921707  c-2.7805786-9.6967163-8.5149536-36.4071655,7.0180054-51.9401245C45.6229019,6.0592732,83.2078629,7.133492,92.3323746,7.6676717  C92.8724136,16.7907181,93.9578629,54.3590775,76.8475113,71.469429z"/><text x="0" y="115" fill="#000000" font-size="5px" font-weight="bold" font-family="'Helvetica Neue', Helvetica, Arial-Unicode, Arial, Sans-serif">Created by revi abraham</text><text x="0" y="120" fill="#000000" font-size="5px" font-weight="bold" font-family="'Helvetica Neue', Helvetica, Arial-Unicode, Arial, Sans-serif">from the Noun Project</text></svg>