<svg xmlns="http://www.w3.org/2000/svg" xmlns:xlink="http://www.w3.org/1999/xlink" version="1.1" x="0px" y="0px" viewBox="0 0 90 112.5" enable-background="new 0 0 90 90" xml:space="preserve"><g><path d="M62.779,30.527H27.221c-0.491,0-0.89,0.398-0.89,0.89v27.167c0,0.49,0.398,0.889,0.89,0.889h35.559   c0.491,0,0.89-0.398,0.89-0.889V31.417C63.669,30.925,63.271,30.527,62.779,30.527z M61.89,57.693H28.11V32.306H61.89V57.693z"/><path d="M41.113,43.984c1.157,0,2.273-0.419,3.143-1.18c0.37-0.323,0.407-0.885,0.084-1.255c-0.325-0.369-0.886-0.407-1.256-0.083   c-0.545,0.477-1.245,0.739-1.971,0.739c-1.653,0-2.999-1.345-2.999-2.998s1.346-2.998,2.999-2.998c1.16,0,2.157,0.67,2.655,1.637   c0.229,0.536,0.326,1.127,0.342,1.36c0,2.634,2.143,4.777,4.776,4.777c2.635,0,4.778-2.143,4.778-4.777s-2.144-4.777-4.778-4.777   c-1.072,0-2.127,0.368-2.969,1.035c-0.385,0.305-0.449,0.865-0.145,1.25c0.305,0.384,0.862,0.45,1.25,0.145   c0.536-0.425,1.181-0.65,1.863-0.65c1.653,0,2.999,1.345,2.999,2.998s-1.346,2.998-2.999,2.998c-1.652,0-2.997-1.345-2.998-3.048   c-0.003-0.056-0.018-0.22-0.048-0.431c-0.057-0.557-0.2-1.085-0.433-1.57c-0.26-0.608-0.655-1.223-1.272-1.64   c-0.018-0.012-0.039-0.013-0.058-0.024c-0.817-0.654-1.84-1.062-2.965-1.062c-2.635,0-4.778,2.143-4.778,4.777   S38.479,43.984,41.113,43.984z"/><path d="M36.664,54.176h2.166v0.627c0,0.49,0.398,0.889,0.89,0.889s0.89-0.398,0.89-0.889v-0.627h0.861v0.627   c0,0.49,0.398,0.889,0.89,0.889s0.89-0.398,0.89-0.889v-0.627h0.861v0.627c0,0.49,0.398,0.889,0.89,0.889s0.89-0.398,0.89-0.889   v-0.627h0.861v0.627c0,0.49,0.398,0.889,0.89,0.889s0.89-0.398,0.89-0.889v-0.627h0.861v0.627c0,0.49,0.398,0.889,0.89,0.889   s0.89-0.398,0.89-0.889v-0.627h2.165c0.491,0,0.89-0.398,0.89-0.889v-3.105c0-0.492-0.398-0.891-0.89-0.891h-2.165v-0.447   c0-0.49-0.398-0.889-0.89-0.889s-0.89,0.398-0.89,0.889v0.447H48.53v-0.447c0-0.49-0.398-0.889-0.89-0.889s-0.89,0.398-0.89,0.889   v0.447H45.89v-0.447c0-0.49-0.398-0.889-0.89-0.889s-0.89,0.398-0.89,0.889v0.447h-0.861v-0.447c0-0.49-0.398-0.889-0.89-0.889   s-0.89,0.398-0.89,0.889v0.447h-0.861v-0.447c0-0.49-0.398-0.889-0.89-0.889s-0.89,0.398-0.89,0.889v0.447h-2.166   c-0.491,0-0.89,0.398-0.89,0.891v3.105C35.774,53.777,36.172,54.176,36.664,54.176z M37.553,51.07h14.893v1.326H37.553V51.07z"/></g><text x="0" y="105" fill="#000000" font-size="5px" font-weight="bold" font-family="'Helvetica Neue', Helvetica, Arial-Unicode, Arial, Sans-serif">Created by Marvin Wilhelm</text><text x="0" y="110" fill="#000000" font-size="5px" font-weight="bold" font-family="'Helvetica Neue', Helvetica, Arial-Unicode, Arial, Sans-serif">from the Noun Project</text></svg>