<svg xmlns="http://www.w3.org/2000/svg" viewBox="0 0 66 82.5" x="0px" y="0px"><path fill="#000000" d="M92.6614494,223 L98.3757351,228 L103,228 C103.552285,228 104,228.447715 104,229 L104,233.464816 L106.5547,235.16795 C107.014229,235.474302 107.138403,236.095172 106.83205,236.5547 C106.525698,237.014229 105.904828,237.138403 105.4453,236.83205 L102.4453,234.83205 C102.167101,234.646585 102,234.334353 102,234 L102,230 L98,230 C97.7577769,230 97.5237869,229.912082 97.3414954,229.752577 L92.1134334,225.178022 L93.9486833,230.683772 C93.9826721,230.785739 94,230.892518 94,231 L94,239.381966 L97.4472136,241.105573 C97.9411921,241.352562 98.1414164,241.953235 97.8944272,242.447214 C97.6474379,242.941192 97.0467649,243.141416 96.5527864,242.894427 L92.5527864,240.894427 C92.2140024,240.725035 92,240.378772 92,240 L92,231.162278 L89.4752373,223.587989 L81.3742869,229.258655 L82.8320503,231.4453 C83.0736099,231.807639 83.0529096,232.284644 82.7808688,232.624695 L78.7808688,237.624695 C78.4358593,238.055957 77.8065669,238.125878 77.375305,237.780869 C76.944043,237.435859 76.8741216,236.806567 77.2191312,236.375305 L80.762343,231.94629 L79.1679497,229.5547 C78.8665082,229.102538 78.9813413,228.492406 79.4265377,228.180768 L86.8276349,223 L58,223 C57.4477153,223 57,222.552285 57,222 C57,221.447715 57.4477153,221 58,221 L89,221 L89,211.014676 C88.9998377,211.004273 88.9998375,210.993861 89,210.983445 L89,199.209178 L82.0838427,183.400819 C81.8624765,182.894839 82.0932014,182.305209 82.5991812,182.083843 C83.1051609,181.862477 83.6947912,182.093201 83.9161573,182.599181 L89,194.219393 L89,178 C89,177.447715 89.4477153,177 90,177 C90.5522847,177 91,177.447715 91,178 L91,198.977069 C91.0003376,198.992038 91.0003362,199.006985 91,199.021899 L91,207.595187 L98.1588215,196.459242 C98.4574737,195.994672 99.0761875,195.860169 99.5407576,196.158822 C100.005328,196.457474 100.139831,197.076188 99.8411785,197.540758 L91,211.293702 L91,221 L122,221 C122.552285,221 123,221.447715 123,222 C123,222.552285 122.552285,223 122,223 L92.6614494,223 Z" transform="translate(-57 -177)"/><text x="0" y="81" fill="#000000" font-size="5px" font-weight="bold" font-family="'Helvetica Neue', Helvetica, Arial-Unicode, Arial, Sans-serif">Created by Andrejs Kirma</text><text x="0" y="86" fill="#000000" font-size="5px" font-weight="bold" font-family="'Helvetica Neue', Helvetica, Arial-Unicode, Arial, Sans-serif">from the Noun Project</text></svg>